
              <svg
                width="18"
                height="19"
                viewBox="0 0 18 19"
                fill="none"
                xmlns="http://www.w3.org/2000/svg"
              >
                <path
                  d="M13.5409 11.5782L12.5587 10.596C12.2659 10.3056 11.8707 10.1418 11.4583 10.1401C11.0459 10.1383 10.6493 10.2987 10.3541 10.5866C10.1965 10.7451 9.98868 10.8437 9.7663 10.8654C9.54393 10.8872 9.32093 10.8308 9.13567 10.7059C8.40446 10.2179 7.77629 9.59089 7.28688 8.86062C7.16418 8.67329 7.10979 8.4494 7.13289 8.22665C7.15598 8.00391 7.25515 7.79593 7.41368 7.63776C7.69901 7.34223 7.85732 6.94676 7.85473 6.53597C7.85215 6.12519 7.68886 5.73174 7.39984 5.43982L6.41763 4.45761C6.12357 4.16455 5.72534 4 5.31019 4C4.89503 4 4.49681 4.16455 4.20274 4.45761L3.92014 4.74066C2.44682 6.21399 2.5571 9.31155 5.62248 12.3752C7.47082 14.224 9.33122 14.9981 10.8398 14.9981C11.2839 15.0129 11.7265 14.9392 12.1417 14.7812C12.557 14.6232 12.9367 14.3842 13.2587 14.078L13.5418 13.7949C13.8354 13.5007 14.0002 13.102 14 12.6864C13.9998 12.2708 13.8347 11.8722 13.5409 11.5782ZM12.9096 13.1636L12.6265 13.4467C11.4657 14.6075 8.90351 14.3954 6.25288 11.7443C3.60226 9.09323 3.38974 6.52919 4.55054 5.36839L4.83136 5.08578C4.9578 4.9598 5.12902 4.88906 5.30751 4.88906C5.486 4.88906 5.65721 4.9598 5.78365 5.08578L6.76586 6.068C6.89001 6.19276 6.96047 6.36111 6.96223 6.53711C6.96398 6.71311 6.89688 6.88282 6.77524 7.01003C6.47356 7.31364 6.28537 7.7117 6.24221 8.13753C6.19905 8.56336 6.30354 8.99109 6.53817 9.34905C7.09426 10.1812 7.80935 10.8953 8.64233 11.4501C8.99922 11.6848 9.42582 11.7899 9.85088 11.7479C10.2759 11.7059 10.6737 11.5193 10.9778 11.2193C11.1047 11.0962 11.2749 11.0279 11.4517 11.029C11.6286 11.03 11.7979 11.1005 11.9234 11.2251L12.9056 12.2073C12.9689 12.2697 13.0192 12.344 13.0537 12.4259C13.0882 12.5078 13.1061 12.5958 13.1065 12.6846C13.1069 12.7735 13.0897 12.8616 13.0559 12.9438C13.0221 13.026 12.9724 13.1007 12.9096 13.1636Z"
                  fill="white"
                />
              </svg>
            