<?xml version="1.0" encoding="UTF-8"?>
<svg xmlns="http://www.w3.org/2000/svg" xmlns:xlink="http://www.w3.org/1999/xlink" width="2112" height="2112" viewBox="0 0 2112 2112">

<path fill-rule="evenodd" fill="rgb(0%, 78.125%, 78.125%)" fill-opacity="1" d="M 1266.878906 1636.324219 C 1309.351562 1574.429688 1344 1510.96875 1371.738281 1448.539062 C 1428.660156 1461.363281 1470.511719 1475.757812 1497.960938 1486.816406 C 1433.851562 1552.695312 1355 1604.246094 1266.878906 1636.324219 Z M 615.578125 1488.53125 C 644.03125 1478.441406 684.484375 1465.675781 736.152344 1453.699219 C 762.492188 1513.148438 795.042969 1573.429688 834.589844 1632.378906 C 751.492188 1600.378906 676.96875 1550.957031 615.578125 1488.53125 Z M 844.5625 475.898438 C 805.578125 524.328125 761.691406 589.03125 724.949219 670.011719 C 671.183594 656.589844 631.050781 642.878906 606.191406 633.421875 C 671.519531 563.71875 753.054688 509.289062 844.5625 475.898438 Z M 1512.089844 640.050781 C 1486.019531 650.808594 1445.199219 665.351562 1389.148438 678.390625 C 1352.640625 594.101562 1308.140625 526.691406 1268.089844 476.058594 C 1362.289062 510.589844 1445.738281 567.328125 1512.089844 640.050781 Z M 1463.429688 1001.53125 C 1459.519531 920.519531 1445.941406 847.210938 1426.558594 781.601562 C 1501.769531 762.988281 1552.398438 742.230469 1579.679688 729.109375 C 1629.929688 809.351562 1662.191406 902.070312 1670.949219 1001.53125 Z M 1462.019531 1110.351562 L 1670.960938 1110.351562 C 1661.671875 1216.660156 1625.421875 1315.160156 1569.121094 1399.179688 C 1540.871094 1385.695312 1488.730469 1364.519531 1411.578125 1345.972656 C 1440.21875 1260.539062 1456.109375 1179.714844 1462.019531 1110.351562 Z M 1110.449219 1309.433594 L 1110.449219 1110.351562 L 1352.898438 1110.351562 C 1346.859375 1173.636719 1331.46875 1247.539062 1304.179688 1325.367188 C 1248.101562 1317.015625 1183.601562 1311.0625 1110.449219 1309.433594 Z M 1110.449219 1418.253906 C 1166.320312 1419.632812 1216.601562 1423.714844 1261.25 1429.371094 C 1224.039062 1507.582031 1174.519531 1586.996094 1110.441406 1661.691406 Z M 1001.691406 1419.105469 L 1001.691406 1670.863281 C 1001.300781 1670.863281 1000.96875 1670.746094 1000.648438 1670.746094 C 934.675781 1594.511719 883.929688 1513.214844 846.058594 1433.351562 C 892.722656 1426.597656 944.710938 1421.472656 1001.691406 1419.105469 Z M 754.617188 1110.351562 L 1001.691406 1110.351562 L 1001.691406 1310.234375 C 927.871094 1313.003906 861.632812 1320.316406 803.511719 1329.730469 C 775.640625 1250.097656 760.253906 1174.699219 754.617188 1110.351562 Z M 645.511719 1110.351562 C 650.996094 1180.824219 667.027344 1263.757812 696.429688 1351.289062 C 623.183594 1369.09375 571.074219 1388.175781 543.203125 1399.589844 C 486.703125 1315.628906 450.398438 1216.871094 441.136719 1110.359375 Z M 644.828125 1001.53125 L 441.144531 1001.53125 C 450.046875 899.378906 483.902344 804.21875 536.507812 722.441406 C 555.242188 730.871094 606.457031 752.109375 685.847656 772.691406 C 664.589844 840.371094 649.367188 916.839844 644.828125 1001.53125 Z M 1001.691406 818.371094 L 1001.691406 1001.53125 L 754.023438 1001.53125 C 758.863281 925.300781 773.367188 856.558594 793.453125 795.898438 C 853.710938 806.578125 923.324219 814.960938 1001.691406 818.371094 Z M 1001.691406 467.378906 L 1001.691406 709.351562 C 940.460938 706.519531 885.105469 700.359375 835.980469 692.480469 C 895.933594 571.070312 971.074219 495.199219 1001.691406 467.378906 Z M 1110.449219 710.851562 L 1110.449219 465.589844 C 1144.289062 497.03125 1219.339844 575.621094 1277.679688 698.5 C 1228.808594 705.109375 1173.128906 709.640625 1110.449219 710.851562 Z M 1110.449219 819.699219 C 1189.738281 818.320312 1258.800781 811.769531 1318.488281 802.738281 C 1336.980469 861.839844 1350.191406 928.171875 1354.378906 1001.53125 L 1110.449219 1001.53125 Z M 1056 336.628906 C 659.429688 336.628906 336.71875 659.339844 336.71875 1055.949219 C 336.71875 1412.972656 598.113281 1709.96875 939.574219 1765.882812 C 940.460938 1766.785156 941.28125 1767.855469 942.199219 1768.683594 L 944.414062 1766.617188 C 980.863281 1772.363281 1018.078125 1775.371094 1056 1775.371094 C 1452.609375 1775.371094 1775.28125 1452.636719 1775.28125 1055.949219 C 1775.28125 659.339844 1452.609375 336.628906 1056 336.628906 "/>
<path fill-rule="evenodd" fill="rgb(30.200195%, 30.200195%, 30.200195%)" fill-opacity="1" d="M 374.488281 474.378906 L 474.378906 374.488281 L 1737.480469 1637.59375 L 1637.589844 1737.484375 L 374.488281 474.378906 "/>
</svg>
